<?xml version="1.0" encoding="UTF-8"?>
<svg id="Layer_2" data-name="Layer 2" xmlns="http://www.w3.org/2000/svg" xmlns:xlink="http://www.w3.org/1999/xlink" viewBox="0 0 1886.66 751.34">
  <defs>
    <style>
      .cls-1 {
        fill: url(#linear-gradient-8);
      }

      .cls-2 {
        fill: url(#linear-gradient-7);
      }

      .cls-3 {
        fill: url(#linear-gradient-5);
      }

      .cls-4 {
        fill: url(#linear-gradient-6);
      }

      .cls-5 {
        fill: url(#linear-gradient-9);
      }

      .cls-6 {
        fill: url(#linear-gradient-4);
      }

      .cls-7 {
        fill: url(#linear-gradient-3);
      }

      .cls-8 {
        fill: url(#linear-gradient-2);
      }

      .cls-9 {
        fill: url(#linear-gradient);
      }

      .cls-10 {
        fill: url(#linear-gradient-10);
      }

      .cls-11 {
        fill: url(#linear-gradient-11);
      }

      .cls-12 {
        fill: url(#linear-gradient-12);
      }

      .cls-13 {
        fill: url(#linear-gradient-13);
      }

      .cls-14 {
        fill: url(#linear-gradient-19);
      }

      .cls-15 {
        fill: url(#linear-gradient-14);
      }

      .cls-16 {
        fill: url(#linear-gradient-21);
      }

      .cls-17 {
        fill: url(#linear-gradient-20);
      }

      .cls-18 {
        fill: url(#linear-gradient-22);
      }

      .cls-19 {
        fill: url(#linear-gradient-23);
      }

      .cls-20 {
        fill: url(#linear-gradient-15);
      }

      .cls-21 {
        fill: url(#linear-gradient-16);
      }

      .cls-22 {
        fill: url(#linear-gradient-17);
      }

      .cls-23 {
        fill: url(#linear-gradient-18);
      }
    </style>
    <linearGradient id="linear-gradient" x1="113.5" y1="564.95" x2="212.76" y2="564.95" gradientUnits="userSpaceOnUse">
      <stop offset="0" stop-color="#92ab8d"/>
      <stop offset="1" stop-color="#bbac70"/>
    </linearGradient>
    <linearGradient id="linear-gradient-2" x1="357.69" y1="588.81" x2="455.41" y2="588.81" xlink:href="#linear-gradient"/>
    <linearGradient id="linear-gradient-3" x1="1218.91" y1="513.79" x2="1316.62" y2="513.79" xlink:href="#linear-gradient"/>
    <linearGradient id="linear-gradient-4" x1="1542.61" y1="36.09" x2="1640.32" y2="36.09" xlink:href="#linear-gradient"/>
    <linearGradient id="linear-gradient-5" x1="758.92" y1="694.62" x2="839.38" y2="694.62" xlink:href="#linear-gradient"/>
    <linearGradient id="linear-gradient-6" x1="1448.31" y1="367.18" x2="1528.78" y2="367.18" xlink:href="#linear-gradient"/>
    <linearGradient id="linear-gradient-7" x1="0" y1="663.38" x2="90.07" y2="663.38" xlink:href="#linear-gradient"/>
    <linearGradient id="linear-gradient-8" x1="288.41" y1="430.91" x2="426.83" y2="430.91" xlink:href="#linear-gradient"/>
    <linearGradient id="linear-gradient-9" x1="658.52" y1="616.12" x2="778.77" y2="616.12" xlink:href="#linear-gradient"/>
    <linearGradient id="linear-gradient-10" x1="712.77" y1="337.47" x2="805.06" y2="337.47" xlink:href="#linear-gradient"/>
    <linearGradient id="linear-gradient-11" x1="868.59" y1="430.91" x2="960.88" y2="430.91" xlink:href="#linear-gradient"/>
    <linearGradient id="linear-gradient-12" x1="1023.02" y1="326.78" x2="1101.95" y2="326.78" xlink:href="#linear-gradient"/>
    <linearGradient id="linear-gradient-13" x1="593.2" y1="390.7" x2="641.64" y2="390.7" xlink:href="#linear-gradient"/>
    <linearGradient id="linear-gradient-14" x1="984.29" y1="698.59" x2="1094.26" y2="698.59" xlink:href="#linear-gradient"/>
    <linearGradient id="linear-gradient-15" x1="955.11" y1="430.91" x2="1064.08" y2="430.91" xlink:href="#linear-gradient"/>
    <linearGradient id="linear-gradient-16" x1="1201.36" y1="310.36" x2="1347.6" y2="310.36" xlink:href="#linear-gradient"/>
    <linearGradient id="linear-gradient-17" x1="1649.93" y1="394.94" x2="1723.81" y2="394.94" xlink:href="#linear-gradient"/>
    <linearGradient id="linear-gradient-18" x1="1704.61" y1="36.09" x2="1745.72" y2="36.09" xlink:href="#linear-gradient"/>
    <linearGradient id="linear-gradient-19" x1="1218.91" y1="706.52" x2="1381.9" y2="706.52" xlink:href="#linear-gradient"/>
    <linearGradient id="linear-gradient-20" x1="1441.14" y1="530.92" x2="1591.47" y2="530.92" xlink:href="#linear-gradient"/>
    <linearGradient id="linear-gradient-21" x1="1663.89" y1="551.96" x2="1786.22" y2="551.96" xlink:href="#linear-gradient"/>
    <linearGradient id="linear-gradient-22" x1="1764.34" y1="184.68" x2="1886.66" y2="184.68" xlink:href="#linear-gradient"/>
    <linearGradient id="linear-gradient-23" x1="1488.55" y1="211.17" x2="1621.34" y2="211.17" xlink:href="#linear-gradient"/>
  </defs>
  <path class="cls-9" d="M116.4,606.61l-2.9,9.5s0,0,0,0c31.68-78.83,73.84-83.63,73.84-83.63-30.79,11.64-49.8,42.31-60.49,66.66,0,0,12.08,1.26,16.1.94,61.65-4.92,47.41-53,69.8-80.64,0,0-99.69-33-92.68,60.52.67,9-1.05,18.02-3.68,26.65Z"/>
  <path class="cls-8" d="M451.3,559.8l4.1-7.08s0,0,0,0c-40.18,57.27-74.89,53.22-74.89,53.22,26.87-3.57,47.86-24.59,61-42.11,0,0-9.45-3.27-12.73-3.77-50.36-7.61-47.95,33.61-71.09,51.58,0,0,73.75,45.16,85.66-31.15,1.15-7.34,4.22-14.25,7.94-20.68Z"/>
  <path class="cls-7" d="M1312.52,484.78l4.1-7.08s0,0,0,0c-40.18,57.27-74.89,53.22-74.89,53.22,26.87-3.57,47.87-24.59,61-42.11,0,0-9.45-3.27-12.73-3.77-50.36-7.61-47.95,33.61-71.09,51.58,0,0,73.75,45.16,85.66-31.15,1.15-7.34,4.22-14.25,7.94-20.68Z"/>
  <path class="cls-6" d="M1636.22,7.08L1640.32,0s0,0,0,0c-40.18,57.27-74.89,53.22-74.89,53.22,26.87-3.57,47.86-24.59,61-42.11,0,0-9.45-3.27-12.73-3.77-50.36-7.61-47.95,33.61-71.09,51.58,0,0,73.75,45.16,85.66-31.15,1.15-7.34,4.22-14.25,7.94-20.68Z"/>
  <path class="cls-3" d="M836,670.73l3.38-5.83s0,0,0,0c-33.09,47.17-61.68,43.82-61.68,43.82,22.13-2.94,39.42-20.25,50.23-34.68,0,0-7.78-2.69-10.48-3.1-41.47-6.27-39.49,27.68-58.54,42.47,0,0,60.74,37.19,70.55-25.66.94-6.05,3.47-11.73,6.54-17.03Z"/>
  <path class="cls-4" d="M1525.4,343.29l3.38-5.83s0,0,0,0c-33.09,47.17-61.68,43.82-61.68,43.82,22.13-2.94,39.42-20.25,50.23-34.68,0,0-7.78-2.69-10.48-3.1-41.47-6.27-39.49,27.68-58.54,42.47,0,0,60.74,37.19,70.54-25.66.94-6.05,3.47-11.73,6.54-17.03Z"/>
  <path class="cls-2" d="M7.63,637.79L0,637.29s0,0,0,0c64.61,9.86,75.62,40.59,75.62,40.59-14.14-21.01-40.45-29.85-60.56-33.57,0,0,1.18,9.27,2.13,12.22,14.53,45.3,48.03,26.18,72.66,38.09,0,0,7.18-80.46-61.63-58.76-6.62,2.09-13.68,2.38-20.6,1.93Z"/>
  <path class="cls-1" d="M297.31,434.93l-8.9,4.41s0,0,0,0c79.11-30.98,111.51-3.57,111.51-3.57-29.58-14.43-64.94-7.25-90,1.66,0,0,7.37,9.65,10.35,12.36,45.85,41.51,71.09-1.82,106.55-4.47,0,0-44.32-95.21-107.6-25.98-6.09,6.66-13.83,11.59-21.92,15.59Z"/>
  <path class="cls-5" d="M663.7,650.7l-5.18,8.48s0,0,0,0c50.36-68.42,92.39-62.54,92.39-62.54-32.72,3.59-58.79,28.53-75.22,49.44,0,0,11.38,4.23,15.35,4.93,60.93,10.63,59.14-39.48,87.72-60.65,0,0-88.29-56.86-104.86,35.45-1.59,8.88-5.51,17.18-10.22,24.88Z"/>
  <path class="cls-10" d="M716.74,364.01l-3.97,6.51s0,0,0,0c38.65-52.51,70.91-48,70.91-48-25.11,2.75-45.12,21.9-57.73,37.94,0,0,8.74,3.25,11.78,3.78,46.76,8.16,45.39-30.3,67.33-46.55,0,0-67.76-43.64-80.48,27.21-1.22,6.82-4.23,13.19-7.84,19.1Z"/>
  <path class="cls-11" d="M872.56,457.46l-3.97,6.51h0c38.65-52.51,70.91-48,70.91-48-25.11,2.75-45.12,21.9-57.73,37.94,0,0,8.74,3.25,11.78,3.78,46.76,8.16,45.39-30.3,67.33-46.55,0,0-67.76-43.64-80.48,27.21-1.22,6.82-4.23,13.19-7.84,19.1Z"/>
  <path class="cls-12" d="M1094.64,362.4l7.31,2.16s0,0,0,0c-60.7-23.82-64.65-56.15-64.65-56.15,9.13,23.55,32.79,37.95,51.54,46,0,0,.89-9.28.62-12.36-4.16-47.28-40.97-36.05-62.33-53.06,0,0-24.7,76.72,47.03,70.75,6.9-.57,13.83.69,20.47,2.65Z"/>
  <path class="cls-13" d="M636.83,423.81l4.81,3.32s0,0,0,0c-38.51-31.8-33.68-56.28-33.68-56.28,1.03,19.32,14.82,35.44,26.55,45.77,0,0,2.86-6.54,3.4-8.85,8.24-35.41-21.23-36.01-32.72-53.48,0,0-36.27,49.96,17.37,62.71,5.16,1.23,9.9,3.8,14.27,6.81Z"/>
  <path class="cls-15" d="M994.07,656.91l-9.78-1.72s0,0,0,0c82.09,21.9,91.96,63.18,91.96,63.18-15.29-29.15-48.03-44.31-73.49-51.97,0,0,.21,12.14,1.02,16.09,12.35,60.6,58.35,40.64,88.49,59.52,0,0,20.69-102.96-71.3-84.67-8.85,1.76-18.01,1.14-26.89-.42Z"/>
  <path class="cls-20" d="M1060.19,392.25l3.89-9.14s0,0,0,0c-39.88,75.02-82.32,75.3-82.32,75.3,31.85-8.3,54.02-36.78,67.23-59.85,0,0-11.88-2.53-15.91-2.64-61.82-1.66-52.78,47.66-77.97,72.76,0,0,95.62,43.42,98.59-50.32.29-9.02,2.96-17.8,6.49-26.1Z"/>
  <path class="cls-21" d="M1334.66,364l12.94,2.1s0,0,0,0c-108.68-27.4-122.45-81.67-122.45-81.67,20.69,38.18,64.17,57.58,97.89,67.22,0,0-.5-16.01-1.64-21.21-17.39-79.72-77.71-52.56-117.82-76.91,0,0-25.42,136.19,95.59,110.4,11.64-2.48,23.74-1.83,35.49.07Z"/>
  <path class="cls-22" d="M1657.67,440.31l-.42,9.14s0,0,0,0c10.31-77.57,46.85-91.46,46.85-91.46-24.82,17.4-34.81,49.11-38.8,73.27,0,0,11.07-1.63,14.58-2.83,53.9-18.43,30.24-58.1,43.92-87.86,0,0-96.49-6.75-68.93,75.12,2.65,7.88,3.17,16.32,2.79,24.62Z"/>
  <path class="cls-23" d="M1708.91,61.33l-.23,5.09s0,0,0,0c5.74-43.16,26.07-50.89,26.07-50.89-13.81,9.68-19.37,27.32-21.59,40.77,0,0,6.16-.91,8.11-1.58,29.99-10.26,16.83-32.33,24.44-48.89,0,0-53.69-3.75-38.35,41.8,1.48,4.38,1.76,9.08,1.55,13.7Z"/>
  <path class="cls-14" d="M1228.19,727.44l-9.28,7.37s0,0,0,0c84.54-55.95,129.2-32.08,129.2-32.08-38.13-9.43-77.58,7.8-104.58,24.47,0,0,11.01,9.42,15.17,11.83,63.88,36.95,82.48-19.91,123.19-31.88,0,0-75.53-99.98-132.03-3.38-5.44,9.29-13.24,16.98-21.67,23.68Z"/>
  <path class="cls-17" d="M1586.75,471.25l4.72-13.79s0,0,0,0c-50.38,113.95-112.43,118.87-112.43,118.87,45.71-15.52,75.11-59.52,92-94.67,0,0-17.64-2.45-23.55-2.18-90.61,4.12-72.15,75.3-106.34,114.69,0,0,144.46,53.38,138.88-84.05-.54-13.22,2.44-26.35,6.73-38.87Z"/>
  <path class="cls-16" d="M1776.19,580.25l10.02.02s0,0,0,0c-85.36-7.56-102.31-46.88-102.31-46.88,20.23,26.32,55.4,35.72,82.02,38.93,0,0-2.31-12.03-3.8-15.81-22.76-58.09-65.01-30.3-98.24-43.84,0,0-2.75,105.89,85.5,71.81,8.49-3.28,17.7-4.25,26.8-4.23Z"/>
  <path class="cls-18" d="M1876.64,212.97l10.02.02h0c-85.36-7.56-102.31-46.88-102.31-46.88,20.23,26.32,55.4,35.72,82.02,38.93,0,0-2.31-12.03-3.8-15.81-22.76-58.09-65.01-30.3-98.24-43.84,0,0-2.75,105.89,85.5,71.81,8.49-3.28,17.7-4.25,26.8-4.23Z"/>
  <path class="cls-19" d="M1496.11,228.22l-7.56,6.01s0,0,0,0c68.88-45.58,105.26-26.14,105.26-26.14-31.06-7.68-63.21,6.36-85.2,19.94,0,0,8.97,7.68,12.36,9.64,52.05,30.11,67.2-16.22,100.37-25.98,0,0-61.54-81.46-107.57-2.75-4.43,7.57-10.79,13.84-17.66,19.29Z"/>
</svg>